<?xml version="1.0" standalone="no"?>
<!DOCTYPE svg PUBLIC "-//W3C//DTD SVG 20010904//EN"
 "http://www.w3.org/TR/2001/REC-SVG-20010904/DTD/svg10.dtd">
<svg version="1.0" xmlns="http://www.w3.org/2000/svg"
 width="640.000000pt" height="640.000000pt" viewBox="0 0 640.000000 640.000000"
 preserveAspectRatio="xMidYMid meet">
<metadata>
Created by potrace 1.14, written by Peter Selinger 2001-2017
</metadata>
<g transform="translate(0.000000,640.000000) scale(0.100000,-0.100000)"
fill="#000000" stroke="none">
<path d="M237 6373 c9 -67 27 -132 34 -128 4 3 10 -4 14 -15 3 -11 10 -20 15
-20 16 0 18 28 4 48 -8 11 -17 48 -21 81 -5 54 -8 61 -28 61 -19 0 -22 -5 -18
-27z"/>
<path d="M722 6392 c-23 -15 -32 -75 -32 -204 l0 -128 63 0 c35 0 67 3 71 7 4
4 21 8 38 9 16 1 37 8 45 17 12 12 13 18 1 36 -11 19 -46 38 -57 32 -9 -6 -18
22 -14 44 4 17 14 25 37 29 18 4 47 22 65 40 47 48 105 61 246 52 62 -3 136
-11 166 -16 30 -6 72 -13 95 -15 22 -3 56 -7 75 -10 19 -3 77 -12 129 -19 52
-8 130 -22 173 -31 42 -9 82 -13 87 -10 6 3 10 1 10 -4 0 -6 18 -11 41 -11 24
0 38 -4 34 -10 -3 -6 1 -7 10 -4 9 4 25 -2 35 -11 11 -10 20 -14 20 -8 0 17
-34 41 -75 52 -59 16 -420 76 -645 106 -485 65 -589 75 -618 57z"/>
<path d="M2305 6373 c52 -35 61 -44 69 -71 4 -12 12 -22 17 -22 5 0 9 -7 9
-15 0 -8 5 -15 11 -15 8 0 8 -4 0 -14 -9 -11 -9 -15 1 -19 12 -5 -5 -8 -67
-12 -53 -4 -103 -19 -163 -51 -66 -34 -102 -43 -102 -24 0 5 -12 -1 -26 -14
-43 -39 -60 -53 -95 -77 -19 -13 -36 -26 -39 -29 -3 -3 -21 -13 -40 -24 -44
-24 -120 -96 -120 -114 0 -16 -87 -12 -265 13 -55 8 -149 19 -210 25 -60 6
-121 12 -135 15 -39 7 -737 83 -820 89 -41 3 -131 13 -200 21 -69 8 -126 15
-127 15 -2 0 -3 -175 -3 -390 l0 -390 22 -5 c13 -3 250 -21 528 -40 278 -20
633 -47 790 -60 157 -14 320 -28 363 -31 71 -6 78 -9 83 -31 4 -16 12 -22 21
-19 11 4 13 1 8 -14 -4 -12 -2 -20 5 -20 6 0 8 -4 5 -10 -3 -6 1 -7 10 -3 10
3 13 8 6 12 -5 4 -10 15 -10 26 1 11 -2 65 -6 120 -6 92 -5 107 20 185 60 189
115 265 260 361 96 64 194 101 296 113 62 7 159 -38 159 -74 0 -5 4 -10 9 -10
16 0 77 -94 84 -128 8 -40 41 -77 61 -69 10 4 14 0 13 -12 0 -10 -9 -17 -20
-17 -32 1 -30 -20 3 -34 17 -7 33 -16 35 -20 6 -10 -60 -50 -81 -50 -8 0 -17
-7 -20 -15 -3 -8 -15 -17 -27 -21 -30 -10 -118 -63 -148 -91 -22 -20 -25 -31
-22 -66 2 -23 6 -53 10 -67 3 -14 7 -27 8 -30 0 -3 4 -23 8 -45 4 -22 16 -69
26 -105 11 -36 25 -91 32 -122 6 -31 18 -59 26 -62 8 -3 11 -11 8 -16 -4 -6
-2 -16 3 -23 12 -14 4 -97 -8 -97 -11 0 -40 -76 -40 -105 0 -19 7 -26 28 -31
15 -4 32 -14 38 -22 9 -12 35 -16 110 -16 54 -1 107 3 116 9 9 5 20 6 24 2 12
-12 -26 -45 -59 -51 -18 -4 -59 -22 -92 -41 -33 -19 -82 -46 -108 -60 -59 -32
-81 -53 -95 -93 -13 -38 3 -55 45 -50 25 3 28 6 25 36 -2 24 1 32 12 32 9 0
16 4 16 10 0 17 81 52 108 47 15 -3 31 1 37 8 5 8 26 15 45 17 29 2 35 0 35
-17 0 -14 -12 -24 -41 -35 -22 -8 -52 -22 -65 -31 -14 -9 -34 -19 -44 -22 -11
-2 -1 -4 21 -3 25 0 40 5 37 11 -3 6 0 4 8 -2 16 -15 33 -17 24 -3 -8 14 21
24 43 15 15 -6 15 -8 -7 -26 -13 -11 -30 -18 -38 -15 -8 3 -13 -2 -13 -15 0
-16 4 -19 21 -14 18 6 20 5 10 -14 -7 -12 -19 -21 -28 -21 -9 0 -13 -3 -10 -7
4 -3 2 -12 -5 -20 -19 -23 19 -45 67 -38 40 6 101 38 120 63 6 7 30 16 53 19
l41 6 -12 -26 c-7 -15 -22 -31 -33 -38 -14 -7 -20 -18 -17 -30 3 -10 9 -16 14
-13 12 7 11 -3 -1 -26 -6 -12 -16 -17 -26 -13 -13 5 -14 0 -9 -29 7 -34 6 -35
-52 -64 -32 -16 -61 -33 -65 -39 -5 -6 -8 -5 -8 4 0 8 -16 -7 -35 -32 -40 -52
-84 -69 -111 -43 -16 17 -34 21 -34 8 0 -11 115 -61 179 -77 105 -27 315 -52
369 -45 47 6 52 5 47 -11 -3 -9 0 -21 6 -25 8 -5 11 -2 7 7 -3 8 -1 25 4 39
10 24 11 24 18 5 l8 -20 8 20 c4 11 23 40 41 64 60 78 219 359 254 446 17 43
16 76 0 88 -10 7 -23 39 -30 72 -7 33 -21 89 -31 125 -19 65 -36 180 -27 180
3 0 18 -7 33 -15 82 -42 133 13 134 143 l0 44 53 -7 c28 -3 120 -17 202 -31
164 -26 361 -54 382 -54 7 0 13 8 14 18 1 32 16 -18 28 -98 7 -41 21 -130 33
-198 11 -68 17 -126 14 -130 -11 -10 -94 -31 -206 -51 -140 -26 -248 -56 -323
-92 -75 -35 -81 -35 -132 -4 -54 33 -58 32 -34 -15 20 -38 20 -41 4 -72 -31
-60 -57 -162 -56 -215 2 -48 28 -144 44 -160 11 -10 8 -83 -3 -83 -5 0 -3 -8
6 -18 13 -16 15 -62 14 -350 -1 -512 -18 -675 -89 -884 -57 -167 -77 -212
-125 -286 -47 -72 -62 -112 -82 -210 -1 -8 -14 -37 -28 -67 -21 -43 -31 -52
-51 -53 -19 0 -23 4 -15 13 15 18 24 101 12 109 -6 3 -25 -8 -44 -25 -18 -17
-51 -43 -73 -57 -22 -15 -54 -38 -71 -52 -17 -14 -41 -33 -53 -43 -12 -9 -25
-17 -31 -17 -18 0 -19 -18 -4 -64 18 -52 29 -63 49 -46 7 6 32 13 54 15 l41 4
-28 -22 c-47 -38 -111 -77 -127 -77 -9 0 -18 6 -21 14 -3 8 -16 13 -32 11 -31
-3 -192 27 -192 36 0 4 22 9 50 13 41 6 51 11 56 31 3 13 20 31 37 40 l32 16
-46 -6 c-26 -3 -71 -15 -100 -26 -92 -36 -156 -44 -195 -25 -19 8 -34 19 -34
23 0 5 11 26 25 47 l24 39 -29 41 c-55 82 -79 134 -91 202 -6 38 -25 100 -41
138 -21 48 -31 89 -32 131 -2 34 -6 66 -9 72 -4 6 -38 23 -76 38 -102 38 -171
124 -171 209 0 40 43 132 77 165 47 47 72 86 102 159 35 88 75 142 102 142 12
0 35 -10 52 -22 24 -17 29 -19 24 -5 -4 11 -2 14 9 10 14 -5 -22 64 -66 127
-9 14 -23 42 -31 63 -7 20 -16 37 -19 37 -4 0 -15 -17 -26 -37 -10 -21 -26
-44 -34 -51 -13 -12 -13 -13 0 -7 8 4 0 -7 -18 -24 -18 -18 -37 -29 -42 -26
-5 3 -58 -41 -117 -99 -89 -85 -118 -122 -165 -204 -74 -130 -105 -209 -123
-311 -22 -124 -18 -248 6 -209 5 7 6 -3 2 -24 -3 -20 -2 -45 2 -55 5 -10 7
-26 6 -36 -3 -25 32 -137 79 -254 45 -109 47 -123 23 -123 -12 0 -14 -3 -7 -8
6 -4 15 -26 19 -50 5 -30 19 -55 50 -88 29 -31 44 -42 48 -33 3 10 8 11 16 3
15 -14 4 -64 -14 -64 -8 0 -26 -17 -42 -39 -15 -21 -49 -50 -75 -65 -73 -41
-63 -64 11 -27 51 26 98 25 105 -3 3 -12 1 -22 -4 -24 -6 -2 -10 -11 -10 -20
0 -32 -82 -142 -106 -142 -4 0 -26 -17 -49 -39 -23 -21 -48 -40 -56 -43 -12
-5 -12 -9 -1 -28 12 -19 11 -24 -4 -35 -17 -12 -16 -13 4 -19 12 -4 22 -12 22
-18 0 -6 9 -1 20 12 25 29 35 21 19 -13 -11 -23 -9 -31 16 -67 15 -22 32 -40
38 -40 5 0 4 -7 -3 -16 -11 -13 -10 -16 8 -21 12 -3 22 -7 22 -9 0 -27 -120
-204 -139 -204 -5 0 -13 10 -17 23 -4 12 -9 24 -13 27 -18 15 -40 74 -35 94 5
20 1 23 -25 24 -21 0 -31 -4 -31 -14 0 -13 -3 -13 -17 1 -13 13 -14 18 -3 25
9 5 11 20 7 43 -4 25 -1 39 9 48 8 6 14 19 14 29 0 15 -10 19 -55 22 -30 1
-60 2 -65 0 -18 -6 -10 -30 11 -35 45 -12 5 -27 -72 -27 -71 0 -80 -2 -77 -17
3 -16 -4 -18 -47 -15 l-50 3 38 -27 c20 -15 37 -31 37 -35 0 -4 24 -31 54 -59
30 -29 52 -58 50 -65 -3 -7 0 -16 6 -20 13 -8 3 -47 -16 -58 -8 -4 -14 -15
-14 -22 0 -8 -4 -15 -10 -15 -5 0 -10 7 -10 16 0 14 -3 14 -15 4 -12 -10 -15
-10 -15 3 0 8 -11 22 -25 31 -14 9 -25 23 -25 31 0 14 -112 75 -138 75 -10 0
-12 -9 -7 -33 4 -17 10 -35 14 -39 3 -4 3 -38 -2 -75 -4 -38 -9 -88 -12 -113
-7 -83 -17 -134 -32 -171 -14 -36 -14 -38 16 -80 48 -66 40 -99 -26 -114 -41
-8 -83 -57 -83 -96 0 -19 -12 -42 -36 -69 l-36 -40 715 0 c706 0 715 0 720 20
3 13 13 20 29 20 39 0 68 -12 68 -26 0 -12 234 -14 1549 -14 l1549 0 -22 73
-23 73 21 2 c12 1 51 5 88 10 37 5 65 5 63 1 -3 -3 -39 -10 -80 -14 -41 -4
-75 -9 -75 -11 0 -3 9 -34 21 -69 l21 -65 79 0 c73 0 79 2 79 21 0 21 -53 50
-96 53 -13 0 -19 6 -17 14 6 15 2 15 53 -3 58 -21 69 -19 63 8 -4 21 -4 21 10
-3 10 -16 12 -30 6 -42 -14 -26 -11 -48 7 -48 8 0 13 4 9 9 -3 5 -1 13 5 16 6
4 9 1 8 -7 -2 -10 26 -14 130 -16 118 -2 133 -1 139 15 4 9 1 19 -5 21 -17 5
-15 19 4 26 10 4 22 -1 29 -10 18 -25 27 -1 9 25 -16 22 -17 22 -99 5 -29 -6
-29 -6 -10 10 11 8 26 16 33 16 16 0 42 24 42 39 0 6 -9 11 -20 11 -11 0 -20
5 -20 11 0 6 9 8 23 3 l22 -6 -23 20 c-29 25 -20 51 15 44 18 -3 24 -1 19 7
-4 6 -13 11 -21 11 -9 0 -15 15 -18 47 l-3 48 -2 -52 c-1 -38 -6 -53 -16 -53
-8 0 -16 7 -20 15 -3 8 -12 12 -21 9 -11 -4 -15 0 -15 16 0 15 4 20 15 16 9
-3 19 3 26 16 9 17 8 24 -6 34 -9 7 -14 17 -11 23 4 6 -9 11 -31 13 -31 2 -39
7 -41 27 -3 16 0 22 10 18 7 -2 12 -10 10 -16 -1 -7 2 -10 8 -6 11 7 13 44 4
68 -4 12 -11 13 -33 5 -22 -9 -35 -6 -76 16 -28 14 -53 26 -57 26 -4 0 -9 -17
-11 -37 -4 -35 -4 -34 -4 7 0 25 -3 55 -7 68 -5 13 -3 22 3 22 6 0 10 -3 10
-7 -4 -24 5 -35 44 -55 23 -13 47 -23 52 -23 6 0 16 -4 23 -8 7 -5 12 -3 12 3
0 6 5 8 10 5 14 -9 13 8 -2 23 -9 9 -9 12 0 12 6 0 15 -6 19 -14 7 -13 12 -12
32 3 23 17 23 19 6 44 -10 16 -13 27 -6 27 6 0 11 7 11 15 0 12 -3 12 -18 -3
-10 -9 -14 -20 -9 -23 5 -3 1 -9 -8 -13 -9 -3 -13 -10 -10 -16 3 -5 2 -10 -3
-10 -6 0 -12 7 -16 15 -3 8 0 14 7 12 7 -1 11 4 9 12 -1 7 5 20 15 28 10 8 11
11 3 7 -8 -5 -3 8 12 28 24 31 25 37 11 40 -15 3 -15 5 -1 18 8 8 13 21 10 28
-2 6 1 12 7 12 6 0 11 -6 12 -12 0 -7 4 -4 9 7 6 14 9 15 10 5 0 -12 3 -11 11
3 6 9 14 15 20 12 5 -4 9 -1 9 4 0 6 -4 11 -9 11 -16 0 -17 44 -1 57 8 6 12
15 7 19 -11 12 -34 -26 -30 -50 3 -13 -3 -26 -16 -34 -18 -10 -21 -10 -21 3 0
8 5 15 10 15 6 0 8 11 6 25 -3 14 -1 23 4 20 4 -3 10 1 13 9 4 10 0 12 -16 8
-40 -10 -188 -115 -177 -125 18 -15 124 -56 134 -50 7 4 7 2 -1 -7 -9 -10 -24
-7 -77 16 -36 16 -66 32 -66 37 0 5 -12 2 -26 -8 -14 -9 -28 -14 -31 -11 -9 9
-54 139 -49 143 4 5 46 -101 46 -117 0 -22 29 -7 105 53 117 91 146 111 154
101 3 -6 13 -9 21 -8 37 3 43 7 20 13 -25 6 -25 8 -17 51 6 25 12 39 14 33 3
-7 12 -13 21 -13 10 0 13 3 6 8 -7 5 -6 15 3 32 7 14 13 21 13 16 0 -5 10 3
21 18 17 22 19 30 9 39 -10 9 -12 8 -7 -5 4 -12 2 -15 -9 -11 -13 5 -13 8 1
29 19 30 19 56 0 30 -8 -11 -15 -15 -15 -9 0 19 25 34 37 22 8 -8 16 -8 30 0
10 6 12 11 6 11 -7 0 -13 7 -13 15 0 19 7 19 28 -2 16 -16 17 -15 20 2 2 9 -2
21 -10 26 -9 6 -9 9 -1 9 9 0 12 42 12 154 1 153 1 155 -22 159 l-22 4 23 2
c21 1 22 5 22 97 0 82 -2 95 -14 85 -12 -10 -13 -8 -9 8 3 12 9 18 14 15 5 -3
9 22 9 55 0 38 -4 61 -12 64 -10 4 -10 6 0 6 8 1 12 25 12 86 0 81 -1 85 -19
73 -15 -9 -23 -9 -35 2 -9 7 -14 15 -11 18 3 3 -2 17 -12 31 l-16 26 21 -19
c12 -11 22 -27 22 -37 0 -16 3 -17 25 -7 24 11 25 14 25 114 l0 103 -29 17
c-17 10 -27 22 -24 28 4 5 0 7 -10 3 -19 -7 -71 38 -61 54 4 8 9 7 15 -2 4 -7
5 -17 2 -23 -3 -5 -1 -6 6 -2 6 4 31 -6 56 -23 l45 -30 0 156 0 157 -32 -30
-33 -29 33 35 c30 34 32 40 32 111 0 75 0 75 -32 93 -31 16 -24 16 14 1 16 -6
17 10 18 209 0 119 -2 216 -4 216 -3 0 -27 -4 -53 -10 -135 -27 -642 -61 -613
-41 12 8 12 11 1 11 -24 0 5 25 59 50 27 13 50 27 50 31 0 9 155 109 170 109
6 0 34 17 63 38 29 22 67 46 85 56 17 9 32 21 32 26 0 6 4 10 9 10 6 0 37 27
71 60 44 43 59 64 53 75 -7 12 -12 12 -33 0 -14 -8 -38 -20 -55 -26 -80 -32
-204 -105 -306 -181 -244 -180 -328 -229 -494 -288 -108 -39 -122 -41 -144
-29 -42 24 -48 45 -21 72 14 13 39 33 55 43 40 25 175 125 175 130 0 5 -54
-16 -60 -24 -10 -14 -52 -33 -58 -27 -4 4 3 15 16 25 34 28 26 32 -15 9 -70
-38 -190 -144 -185 -161 4 -14 -17 -76 -28 -83 -5 -3 -4 8 2 25 16 46 1 49
-19 4 l-17 -39 -5 33 c-7 40 -16 42 -50 10 -70 -66 -195 -159 -209 -156 -14 3
-18 21 -22 108 -6 131 -27 174 -91 193 -10 3 -25 34 -39 79 -12 40 -31 100
-42 133 -13 38 -24 104 -29 185 -10 156 -23 238 -43 278 -18 35 -55 61 -57 40
-1 -14 -16 70 -43 241 -12 73 -14 107 -7 114 6 6 11 32 11 58 0 47 18 79 43
79 7 0 28 8 47 19 55 29 183 68 333 102 113 25 143 29 169 20 17 -6 33 -11 34
-11 2 0 4 20 4 44 0 35 5 48 22 60 35 25 85 19 140 -14 26 -16 52 -30 57 -30
5 0 14 -7 21 -16 23 -26 83 -48 137 -48 45 -1 57 -5 87 -35 l35 -34 233 27
c263 30 288 31 341 11 35 -12 45 -11 94 6 31 10 64 19 75 19 17 0 18 19 18
434 l0 435 -62 37 c-290 174 -436 324 -426 440 2 24 1 44 -2 44 -11 0 -68 -56
-79 -78 -15 -29 -11 -90 7 -120 14 -22 13 -25 -24 -58 -82 -76 -49 -72 -589
-65 -201 2 -316 -1 -348 -8 -66 -16 -187 -58 -203 -72 -7 -6 -19 -7 -26 -3 -7
4 -10 4 -6 -1 4 -4 -4 -14 -19 -22 -21 -11 -28 -11 -35 -1 -6 10 -8 10 -8 1 0
-7 -4 -13 -10 -13 -5 0 -10 7 -10 15 0 8 -7 15 -15 15 -9 0 -15 9 -15 25 0 14
-4 25 -10 25 -5 0 -10 7 -10 16 0 8 5 12 10 9 6 -3 10 -2 10 4 0 15 -23 26
-28 13 -2 -7 -19 -12 -38 -12 -19 0 -34 -4 -34 -10 0 -5 -7 -10 -15 -10 -11 0
-15 12 -15 50 l0 50 -40 0 c-38 0 -40 1 -41 33 l0 32 -16 -32 c-9 -18 -19 -33
-23 -33 -6 0 -40 64 -40 75 0 3 9 5 19 5 19 0 39 35 27 47 -10 11 -56 -16 -56
-32 0 -22 -57 -20 -63 3 -4 16 -5 16 -6 0 -2 -26 -8 -23 -51 22 -21 22 -47 40
-57 40 -23 1 -53 23 -53 40 0 9 -6 7 -20 -5 -19 -17 -21 -17 -40 0 -18 16 -20
16 -20 2 0 -13 -9 -17 -39 -17 -33 0 -40 4 -44 23 -3 16 -5 13 -6 -10 -1 -34
-17 -43 -39 -21 -9 9 -12 9 -12 0 0 -14 -46 -16 -55 -2 -3 6 -15 10 -26 10
-10 0 -19 5 -19 11 0 8 -24 9 -80 4 -72 -6 -80 -5 -80 10 0 14 -6 16 -37 10
-21 -4 -39 -11 -41 -16 -2 -5 -13 -2 -24 6 -16 10 -26 11 -41 3 -18 -9 -19 -8
-14 11 3 15 1 21 -6 18 -7 -2 -13 -9 -13 -15 -3 -23 -4 -24 -19 -12 -8 6 -23
9 -35 5 -12 -4 -27 -1 -35 5 -12 10 -15 8 -15 -11 l-1 -24 -20 28 c-11 15 -26
27 -33 27 -14 0 -71 62 -68 74 2 5 -4 6 -13 3 -11 -5 -15 0 -15 18 0 28 -27
46 -57 39 -14 -4 -25 2 -37 20 -13 20 -22 25 -40 20 -16 -4 -25 -1 -29 10 -4
9 -18 16 -32 16 -14 0 -25 3 -25 8 0 4 -4 13 -9 21 -8 12 -12 12 -25 2 -13
-11 -16 -11 -16 0 0 10 -3 10 -12 1 -8 -8 -17 -6 -36 8 -14 11 -34 20 -46 20
-18 0 -19 2 -6 11 12 9 10 10 -9 5 -39 -8 -79 4 -115 38 -19 17 -47 41 -63 54
-15 13 -50 43 -78 68 -49 43 -52 44 -120 44 l-70 0 40 -27z m441 -771 c-22 -5
-30 3 -21 18 5 8 11 7 22 -2 15 -12 14 -13 -1 -16z m1040 -50 c-10 -2 -22 0
-28 6 -6 6 0 7 19 4 21 -5 23 -7 9 -10z m354 -52 c20 -6 21 -8 5 -8 -11 0 -29
3 -40 8 -25 11 1 11 35 0z m91 -21 c52 -17 129 -52 125 -56 -2 -3 -26 5 -53
16 -26 11 -68 27 -93 35 -25 8 -38 15 -29 16 9 0 31 -5 50 -11z m349 -3 c0 -3
-4 -8 -10 -11 -5 -3 -10 -1 -10 4 0 6 5 11 10 11 6 0 10 -2 10 -4z m-1799
-182 c5 -48 4 -48 -49 -60 -29 -7 -63 -19 -77 -28 -31 -20 -35 -20 -35 2 0 22
46 67 78 77 12 3 22 9 22 13 0 14 60 9 61 -4z m-21 -73 c0 -9 -40 -27 -48 -22
-1 1 -19 -12 -39 -28 -20 -17 -39 -28 -41 -26 -6 6 18 35 29 35 5 0 18 8 29
18 11 9 30 20 43 24 12 3 23 6 25 7 1 1 2 -3 2 -8z m350 -42 c0 -6 4 -8 9 -5
10 7 21 -28 20 -64 0 -23 -1 -23 -9 -5 -6 15 -8 10 -7 -20 1 -22 9 -46 17 -52
13 -11 13 -14 0 -22 -10 -7 -16 -7 -18 -1 -2 6 -8 8 -13 4 -5 -3 -5 -14 2 -26
8 -14 8 -23 0 -31 -6 -6 -11 -23 -11 -38 0 -15 -5 -31 -10 -34 -8 -5 -7 -11 0
-20 8 -10 8 -20 -1 -37 -7 -12 -13 -45 -13 -73 -2 -46 -4 -51 -36 -68 -44 -24
-49 -22 -173 60 -67 45 -87 71 -76 101 7 19 4 27 -20 48 -30 25 -47 64 -28 64
7 0 3 8 -8 16 -20 15 -20 15 -1 30 11 8 30 14 43 14 13 0 31 4 41 9 9 6 38 20
65 32 26 12 47 26 47 31 0 4 7 8 16 8 8 0 12 5 9 10 -3 6 -1 10 5 10 17 0 82
32 76 37 -2 3 5 15 16 28 16 19 25 22 39 14 11 -5 19 -14 19 -20z m-390 -70
c0 -5 -11 -9 -25 -9 -27 0 -32 9 -13 28 12 12 38 -1 38 -19z m1746 -211 c22
-189 12 -199 -14 -13 -12 88 -24 171 -27 185 -4 18 -1 16 11 -9 8 -19 22 -92
30 -163z m-1636 178 c0 -2 -7 -7 -16 -10 -8 -3 -12 -2 -9 4 6 10 25 14 25 6z
m-50 -16 c12 -8 11 -10 -7 -11 -76 -4 -99 1 -58 11 43 11 48 11 65 0z m837
-12 c-3 -8 -6 -5 -6 6 -1 11 2 17 5 13 3 -3 4 -12 1 -19z m-140 -155 c-3 -10
-5 -4 -5 12 0 17 2 24 5 18 2 -7 2 -21 0 -30z m67 -37 c-3 -9 -10 -13 -15 -10
-5 3 -3 11 4 19 15 16 19 13 11 -9z m66 -96 c0 -5 -4 -10 -10 -10 -5 0 -10 5
-10 10 0 6 5 10 10 10 6 0 10 -4 10 -10z m877 -87 c-3 -10 -5 -2 -5 17 0 19 2
27 5 18 2 -10 2 -26 0 -35z m10 -70 c-3 -10 -5 -4 -5 12 0 17 2 24 5 18 2 -7
2 -21 0 -30z m-1366 -88 c4 -6 7 -39 5 -74 -3 -58 -6 -65 -31 -78 -31 -17 -75
-5 -75 20 0 20 39 67 53 64 13 -2 14 21 3 70 -6 28 -5 32 8 27 10 -4 16 -1 17
7 1 8 4 5 6 -6 3 -11 9 -25 14 -30z m-291 -146 c0 -11 -4 -17 -10 -14 -5 3
-10 13 -10 21 0 8 5 14 10 14 6 0 10 -9 10 -21z m-561 -1255 c-12 -13 -25 -21
-28 -18 -3 3 4 14 16 24 12 9 19 21 15 25 -4 5 -1 5 6 1 11 -6 9 -13 -9 -32z
m2901 -166 c0 -71 -47 -214 -83 -249 -7 -8 -25 -31 -39 -52 -22 -33 -27 -35
-38 -22 -9 11 -11 33 -6 78 11 99 23 129 70 179 24 25 52 58 61 72 23 35 35
33 35 -6z m1195 -128 c-3 -5 -14 -10 -23 -9 -14 0 -13 2 3 9 27 11 27 11 20 0z
m-100 -382 c5 4 5 1 1 -6 -6 -10 -11 -10 -22 -1 -8 6 -14 14 -14 16 0 3 6 0
13 -6 8 -6 18 -7 22 -3z m-135 -2 c0 -2 -7 -6 -15 -10 -8 -3 -15 -1 -15 4 0 6
7 10 15 10 8 0 15 -2 15 -4z m-96 -282 c3 -8 2 -12 -4 -9 -6 3 -10 10 -10 16
0 14 7 11 14 -7z m265 -79 c0 -5 -8 6 -19 25 -11 19 -19 40 -19 45 0 6 8 -6
19 -25 11 -19 19 -39 19 -45z m-198 8 c13 -16 12 -17 -3 -4 -10 7 -18 15 -18
17 0 8 8 3 21 -13z m106 -29 c-3 -3 -12 -4 -19 -1 -8 3 -5 6 6 6 11 1 17 -2
13 -5z m-44 -11 c-7 -2 -21 -2 -30 0 -10 3 -4 5 12 5 17 0 24 -2 18 -5z m-53
-7 c0 -2 -13 -9 -30 -15 -35 -12 -41 -5 -7 9 25 10 37 12 37 6z m-80 -26 c0
-5 -9 -10 -20 -10 -10 0 -24 -8 -30 -17 -10 -16 -10 -16 -8 2 2 12 13 23 28
26 14 4 26 7 28 8 1 0 2 -3 2 -9z m317 -73 c1 -28 0 -29 -7 -10 -6 16 -15 21
-27 17 -10 -3 -7 2 7 10 14 8 25 15 25 16 0 0 1 -15 2 -33z m-67 -7 c-8 -5
-19 -10 -25 -10 -5 0 -3 5 5 10 8 5 20 10 25 10 6 0 3 -5 -5 -10z m-312 -65
c-1 -35 -5 -61 -8 -57 -7 8 -1 122 7 122 2 0 3 -29 1 -65z m267 45 c-3 -5 -12
-10 -18 -10 -7 0 -6 4 3 10 19 12 23 12 15 0z m52 -52 c-2 -13 -4 -3 -4 22 0
25 2 35 4 23 2 -13 2 -33 0 -45z m-117 22 c-19 -11 -39 -19 -45 -19 -5 0 6 8
25 19 19 11 40 19 45 19 6 0 -6 -8 -25 -19z m187 -12 c-3 -7 -5 -2 -5 12 0 14
2 19 5 13 2 -7 2 -19 0 -25z m-297 -38 c-19 -11 -39 -19 -45 -19 -5 0 6 8 25
19 19 11 40 19 45 19 6 0 -6 -8 -25 -19z m-266 -6 c3 -8 2 -12 -4 -9 -6 3 -10
10 -10 16 0 14 7 11 14 -7z m492 -114 c-1 -43 -4 -81 -6 -84 -3 -2 -35 -6 -71
-9 -36 -3 -77 -8 -90 -11 -13 -3 -44 -7 -69 -10 -25 -3 -59 -8 -76 -11 -29 -5
-30 -4 -32 34 -2 22 2 42 8 46 6 4 10 -6 10 -24 0 -17 2 -31 5 -31 3 0 50 7
106 15 55 8 122 16 150 17 l49 3 0 72 c0 40 4 73 9 73 5 0 8 -36 7 -80z m-269
23 c-3 -10 -5 -4 -5 12 0 17 2 24 5 18 2 -7 2 -21 0 -30z m-60 -25 c-3 -8 -6
-5 -6 6 -1 11 2 17 5 13 3 -3 4 -12 1 -19z m70 -70 c-3 -7 -5 -2 -5 12 0 14 2
19 5 13 2 -7 2 -19 0 -25z m-63 -98 c29 -28 56 -50 59 -50 3 0 8 12 10 28 l4
27 1 -30 c1 -16 -6 -41 -14 -55 -8 -14 -13 -17 -10 -8 5 17 -13 37 -124 139
-33 30 -36 35 -13 20 18 -12 57 -44 87 -71z m-134 57 c0 -2 -10 -12 -22 -23
l-23 -19 19 23 c18 21 26 27 26 19z m-3593 -89 c-3 -8 -6 -5 -6 6 -1 11 2 17
5 13 3 -3 4 -12 1 -19z m4135 -87 c-4 -10 -11 -3 -21 20 -9 19 -19 36 -24 37
-4 2 -4 8 -1 13 8 14 52 -53 46 -70z m-318 -21 c2 0 20 7 40 15 31 13 36 13
36 1 0 -8 18 -57 40 -107 22 -51 40 -96 40 -101 0 -4 14 -36 30 -70 17 -34 30
-70 30 -80 0 -10 5 -18 10 -18 6 0 10 -4 10 -8 0 -5 -7 -9 -15 -9 -8 0 -15 9
-15 19 0 10 -4 26 -10 36 -14 25 -72 166 -106 255 -25 68 -32 77 -49 72 -44
-14 -50 -11 -51 25 -1 35 -1 35 3 3 2 -18 6 -33 7 -33z m-66 -5 c-6 -14 -13
-23 -15 -21 -5 5 15 46 22 46 3 0 -1 -11 -7 -25z m122 2 c0 -2 -17 -19 -37
-38 l-38 -34 34 38 c33 34 41 42 41 34z m242 -12 c-2 -5 -15 -8 -30 -5 -15 2
-44 4 -64 5 -21 0 -38 4 -38 8 0 4 30 7 68 5 38 -2 66 -7 64 -13z m-399 -60
c-3 -9 -8 -14 -10 -11 -3 3 -2 9 2 15 9 16 15 13 8 -4z m-2436 -11 c-3 -3 -12
-4 -19 -1 -8 3 -5 6 6 6 11 1 17 -2 13 -5z m2483 -17 c0 -2 -10 -12 -22 -23
l-23 -19 19 23 c18 21 26 27 26 19z m135 -77 c44 -44 75 -80 69 -80 -6 0 -44
36 -83 80 -40 44 -71 80 -69 80 2 0 39 -36 83 -80z m-496 15 c-3 -2 -16 10
-29 28 l-23 32 29 -27 c15 -15 26 -30 23 -33z m-3543 1 c-11 -24 -23 -39 -25
-33 -4 12 29 77 40 77 4 0 -3 -20 -15 -44z m3794 -4 c12 11 12 10 2 -3 -6 -9
-8 -20 -4 -24 4 -5 -9 4 -30 20 -20 17 -39 37 -43 45 -3 8 9 0 27 -18 28 -26
37 -30 48 -20z m447 16 c-3 -8 -6 -5 -6 6 -1 11 2 17 5 13 3 -3 4 -12 1 -19z
m-528 -25 c-2 -31 -3 -33 -6 -10 -3 18 -11 27 -24 28 -83 3 -93 2 -100 -17 -3
-10 -4 -23 -1 -28 3 -5 1 -6 -5 -3 -5 3 -8 20 -5 37 l4 30 69 0 69 0 -1 -37z
m484 -10 c-7 -2 -19 -2 -25 0 -7 3 -2 5 12 5 14 0 19 -2 13 -5z m-4223 -42 c0
-5 -7 -11 -15 -15 -15 -5 -20 5 -8 17 9 10 23 9 23 -2z m4255 -1 c3 -5 1 -10
-4 -10 -6 0 -11 5 -11 10 0 6 2 10 4 10 3 0 8 -4 11 -10z m-4289 -57 c-10 -10
-19 5 -10 18 6 11 8 11 12 0 2 -7 1 -15 -2 -18z m3882 -2 c-7 -12 -16 -21 -21
-21 -4 0 0 11 10 24 22 29 30 27 11 -3z m53 -116 c63 -65 84 -81 93 -72 19 19
86 133 86 146 0 6 5 11 10 11 11 0 -17 -59 -58 -125 -14 -22 -31 -50 -37 -62
-12 -22 -13 -21 -62 35 -28 31 -67 75 -87 96 -33 37 -44 56 -31 56 3 0 42 -38
86 -85z m-258 48 c-7 -2 -19 -2 -25 0 -7 3 -2 5 12 5 14 0 19 -2 13 -5z m78
-50 c13 -16 12 -17 -3 -4 -17 13 -22 21 -14 21 2 0 10 -8 17 -17z m98 -128 c0
-5 -4 -3 -9 5 -5 8 -9 22 -9 30 0 16 17 -16 18 -35z m-159 -5 c12 -16 19 -30
16 -30 -2 0 -14 14 -26 30 -12 17 -19 30 -16 30 2 0 14 -13 26 -30z m-4003 14
c-3 -3 -12 -4 -19 -1 -8 3 -5 6 6 6 11 1 17 -2 13 -5z m4061 -61 c-21 -2 -57
-2 -80 0 -24 2 -7 4 37 4 44 0 63 -2 43 -4z m-181 -55 c-3 -8 -6 -5 -6 6 -1
11 2 17 5 13 3 -3 4 -12 1 -19z m-2732 -68 c-10 -11 -21 -17 -24 -14 -3 3 3
12 13 20 28 20 32 17 11 -6z m-272 -24 c3 -8 -14 -33 -44 -61 -51 -48 -60 -46
-33 8 31 61 65 85 77 53z m3343 -10 c3 -13 4 -35 1 -47 -3 -16 -5 -12 -6 14
-1 31 -4 37 -23 37 -19 0 -20 2 -8 10 23 15 29 12 36 -14z m-56 6 c0 -4 -10
-9 -22 -9 -18 -2 -20 0 -8 7 18 12 30 13 30 2z m-50 -12 c0 -5 -10 -10 -22 -9
-22 0 -22 1 -3 9 11 5 21 9 23 9 1 1 2 -3 2 -9z m-253 -37 c-3 -10 -5 -4 -5
12 0 17 2 24 5 18 2 -7 2 -21 0 -30z m198 27 c-3 -5 -16 -10 -28 -9 -21 0 -21
1 -2 9 28 12 37 12 30 0z m-58 -16 c-3 -3 -12 -4 -19 -1 -8 3 -5 6 6 6 11 1
17 -2 13 -5z m-140 -56 c-3 -8 -6 -5 -6 6 -1 11 2 17 5 13 3 -3 4 -12 1 -19z
m563 -15 c0 -17 -19 -37 -27 -29 -4 5 -2 11 5 13 6 3 10 9 6 14 -3 5 0 9 5 9
6 0 11 -3 11 -7z m-267 -95 c-1 -51 -2 -104 -3 -118 0 -14 -4 -20 -8 -15 -4 6
-16 11 -27 11 -11 0 -50 3 -87 8 -51 6 -68 11 -68 23 0 12 8 14 38 10 20 -3
61 -9 90 -13 l52 -7 0 90 c0 73 4 103 14 103 1 0 0 -42 -1 -92z m242 2 c-3 -5
-10 -10 -16 -10 -5 0 -9 5 -9 10 0 6 7 10 16 10 8 0 12 -4 9 -10z m-55 -24 c0
-8 -10 -18 -22 -22 -13 -4 -41 -18 -63 -32 -52 -32 -32 -10 31 33 58 40 54 39
54 21z m-493 -28 c-3 -8 -6 -5 -6 6 -1 11 2 17 5 13 3 -3 4 -12 1 -19z m380
-10 c-3 -8 -6 -5 -6 6 -1 11 2 17 5 13 3 -3 4 -12 1 -19z m133 8 c0 -2 -7 -6
-15 -10 -8 -3 -15 -1 -15 4 0 6 7 10 15 10 8 0 15 -2 15 -4z m-483 -22 c-3 -3
-12 -4 -19 -1 -8 3 -5 6 6 6 11 1 17 -2 13 -5z m37 -6 c-5 -8 0 -9 14 -6 12 4
22 2 22 -3 0 -5 -7 -9 -15 -9 -8 0 -15 -5 -15 -11 0 -6 -7 -3 -16 5 -15 16
-12 36 7 36 6 0 7 -5 3 -12z m416 -52 c-15 -15 -22 -1 -14 30 l7 28 9 -24 c5
-14 5 -27 -2 -34z m72 26 c-7 -2 -25 -1 -40 3 -25 7 -25 8 -7 15 11 4 29 3 40
-3 13 -7 16 -12 7 -15z m-3894 -12 c-14 -4 -32 -11 -40 -15 -7 -3 -4 1 6 9 11
9 29 16 40 15 17 -1 16 -2 -6 -9z m3917 -26 c-25 -25 -17 -64 15 -77 13 -5 13
-6 -1 -6 -8 -1 -26 10 -38 23 l-23 25 23 29 c13 16 27 27 32 25 4 -2 0 -11 -8
-19z m-38 10 c-3 -3 -12 -4 -19 -1 -8 3 -5 6 6 6 11 1 17 -2 13 -5z m-477 -98
c0 -12 -5 -7 -19 24 -11 24 -11 24 3 6 9 -11 16 -24 16 -30z m472 7 c7 2 10 2
6 0 -11 -6 -10 -33 0 -33 4 0 14 6 21 13 11 10 12 8 6 -10 -8 -27 2 -29 27 -6
17 15 18 15 18 -11 0 -30 -23 -44 -45 -26 -8 6 -24 9 -37 6 -13 -3 -17 -3 -10
0 13 6 17 34 5 34 -5 0 -16 12 -27 26 -18 26 -18 26 2 15 11 -6 27 -9 34 -8z
m-174 -63 c11 0 13 -3 6 -8 -7 -4 -14 -16 -17 -27 -4 -18 -5 -18 -6 3 0 12 -5
22 -11 22 -5 0 -6 8 -3 17 4 11 8 12 11 5 2 -7 11 -12 20 -12z m142 16 c0 -3
-4 -8 -10 -11 -5 -3 -10 -1 -10 4 0 6 5 11 10 11 6 0 10 -2 10 -4z m150 -46
c0 -5 -7 -10 -15 -10 -8 0 -15 5 -15 10 0 6 7 10 15 10 8 0 15 -4 15 -10z
m-123 -43 c-5 -15 -39 -16 -44 -2 -2 6 8 12 23 13 17 1 24 -2 21 -11z"/>
<path d="M855 6190 c3 -5 8 -10 11 -10 2 0 4 5 4 10 0 6 -5 10 -11 10 -5 0 -7
-4 -4 -10z"/>
<path d="M2640 5560 c0 -5 5 -10 10 -10 6 0 10 5 10 10 0 6 -4 10 -10 10 -5 0
-10 -4 -10 -10z"/>
<path d="M2112 5174 c-38 -16 -112 -82 -112 -100 0 -8 -4 -14 -10 -14 -5 0
-10 -4 -10 -10 0 -15 89 -3 117 15 13 9 33 13 43 10 28 -9 44 3 29 21 -9 11
-6 16 14 25 14 6 27 19 30 29 6 25 -61 41 -101 24z"/>
<path d="M2209 5043 c-9 -10 -29 -28 -45 -40 -28 -21 -28 -22 -6 -22 22 -1 22
-2 -10 -28 -18 -15 -39 -37 -47 -47 -8 -11 -23 -28 -33 -38 -21 -21 -24 -58
-4 -58 7 0 19 7 26 15 7 8 20 15 30 15 9 0 20 3 24 8 4 4 11 7 14 7 4 1 18 7
31 14 33 18 75 -3 60 -30 -14 -26 3 -24 29 4 12 13 22 35 22 49 0 14 9 33 20
43 19 17 19 19 4 36 -15 17 -15 19 0 25 24 9 20 22 -16 44 -41 25 -79 26 -99
3z m-69 -178 c0 -8 -7 -15 -15 -15 -16 0 -20 12 -8 23 11 12 23 8 23 -8z"/>
<path d="M1878 4905 c2 -14 9 -25 14 -25 5 0 7 -4 4 -9 -6 -9 45 -143 52 -136
8 8 -60 195 -72 195 -2 0 -1 -11 2 -25z"/>
<path d="M2205 4860 c4 -6 11 -8 16 -5 14 9 11 15 -7 15 -8 0 -12 -5 -9 -10z"/>
<path d="M2431 4557 c-24 -24 -12 -37 35 -37 52 0 56 17 7 36 -23 10 -33 10
-42 1z"/>
<path d="M2356 4536 c4 -16 3 -27 -2 -23 -5 3 -9 -28 -9 -69 -1 -41 3 -74 7
-74 4 0 8 -12 8 -27 0 -16 5 -35 11 -43 8 -11 9 21 6 113 -3 79 -9 133 -17
140 -9 9 -10 5 -4 -17z"/>
<path d="M2720 3715 c0 -8 -6 -14 -12 -12 -22 4 -22 -59 0 -81 10 -10 22 -37
25 -59 6 -36 10 -40 37 -41 16 0 30 4 30 9 0 5 6 4 14 -3 10 -9 11 -17 4 -25
-6 -7 -7 -24 -4 -39 5 -19 4 -24 -6 -18 -10 6 -10 4 -2 -7 6 -8 10 -51 10 -96
-1 -94 -2 -93 84 -70 69 18 75 25 51 51 -20 21 -37 70 -60 169 -10 43 -36 83
-120 184 -10 12 -21 29 -24 37 -8 20 -27 21 -27 1z"/>
<path d="M3190 3675 c-7 -9 -11 -17 -9 -20 3 -2 10 5 17 15 14 24 10 26 -8 5z"/>
<path d="M3100 3620 c0 -5 5 -10 10 -10 6 0 10 5 10 10 0 6 -4 10 -10 10 -5 0
-10 -4 -10 -10z"/>
<path d="M3063 3596 c-33 -16 -28 -27 7 -15 16 6 27 15 24 20 -3 5 -6 8 -7 8
-1 -1 -12 -6 -24 -13z"/>
<path d="M2055 3460 c-4 -6 7 -10 25 -10 18 0 29 4 25 10 -3 6 -15 10 -25 10
-10 0 -22 -4 -25 -10z"/>
<path d="M2096 3415 c-18 -14 -18 -15 7 -26 18 -8 30 -8 43 0 18 10 18 10 -3
11 -16 0 -21 4 -17 15 8 19 -5 19 -30 0z"/>
<path d="M435 3310 c28 -12 37 -12 30 0 -3 6 -16 10 -28 9 -21 0 -21 -1 -2 -9z"/>
<path d="M625 3310 c-18 -7 -19 -8 -2 -15 21 -9 50 1 42 15 -7 12 -13 12 -40
0z"/>
<path d="M5438 3313 c7 -3 16 -2 19 1 4 3 -2 6 -13 5 -11 0 -14 -3 -6 -6z"/>
<path d="M80 3280 c-77 -15 -77 -15 -79 -92 l-2 -70 28 7 c26 6 27 6 10 -13
-24 -26 -21 -32 13 -32 44 0 37 -19 -10 -26 l-40 -7 0 -58 c0 -56 1 -59 24
-59 19 0 23 -4 19 -19 -3 -13 3 -25 20 -36 29 -19 26 -55 -4 -55 -11 0 -19 -4
-19 -9 0 -5 -8 -12 -19 -16 -11 -3 -18 -15 -19 -29 0 -20 8 -26 45 -37 26 -7
40 -15 33 -19 -9 -5 -9 -9 -1 -14 6 -4 15 -5 20 -1 8 4 72 10 179 14 6 1 12 7
12 15 0 8 8 17 18 19 9 3 3 5 -14 6 -17 0 -37 -6 -44 -14 -17 -20 -32 -19 -62
5 -14 10 -28 17 -31 14 -8 -8 -47 6 -47 17 0 5 23 9 51 9 27 0 48 4 45 9 -9
14 20 21 80 21 50 0 53 1 43 18 -8 13 -20 17 -37 14 -17 -3 -23 -1 -18 7 4 6
16 11 27 11 11 0 17 5 14 10 -3 6 -15 10 -26 10 -32 0 -22 15 26 39 52 26 71
47 34 38 -13 -3 -30 -2 -37 2 -9 5 0 10 28 15 23 3 38 11 35 16 -3 6 0 10 7
11 7 0 24 2 38 3 14 1 52 3 85 5 60 3 60 3 20 11 -22 5 -73 6 -112 3 -41 -3
-73 -2 -73 3 0 5 4 24 9 42 10 35 8 37 -51 56 -15 5 -14 9 12 38 16 17 28 33
27 35 -2 1 -27 -4 -57 -12 -70 -19 -94 -19 -110 0 -9 11 -9 21 4 46 21 43 20
52 -5 44 -15 -5 -19 -4 -15 4 8 12 -17 13 -74 1z m159 -144 c10 -12 3 -15 -38
-21 -59 -8 -81 0 -54 21 24 18 77 18 92 0z m-31 -78 c-5 -15 -98 -24 -98 -9 0
9 28 16 78 20 15 0 22 -4 20 -11z m-15 -205 c-7 -2 -19 -2 -25 0 -7 3 -2 5 12
5 14 0 19 -2 13 -5z m-28 -23 c3 -5 -1 -10 -9 -10 -8 0 -18 5 -21 10 -3 6 1
10 9 10 8 0 18 -4 21 -10z"/>
<path d="M430 3260 c12 -16 29 -30 38 -29 11 0 12 3 5 6 -20 7 -15 23 6 23 11
0 22 4 25 9 7 10 -27 21 -67 21 l-28 0 21 -30z"/>
<path d="M595 3250 c-3 -11 -12 -20 -19 -20 -14 0 -42 -28 -35 -34 2 -2 26 -7
53 -11 41 -5 48 -4 43 8 -3 8 3 23 14 33 14 13 16 20 8 31 -17 20 -57 16 -64
-7z"/>
<path d="M347 3224 c-14 -15 5 -22 34 -14 45 13 48 20 7 20 -19 0 -38 -3 -41
-6z"/>
<path d="M630 3150 c-11 -7 -7 -10 17 -10 17 0 35 5 38 10 8 13 -35 13 -55 0z"/>
<path d="M680 3119 l-35 -18 33 -1 c32 0 67 21 55 34 -8 8 -12 7 -53 -15z"/>
<path d="M1046 3131 c-7 -11 49 -22 71 -14 15 6 15 7 -3 14 -27 11 -62 11 -68
0z"/>
<path d="M814 3105 c7 -13 23 -33 36 -43 23 -19 24 -19 46 5 21 22 26 23 102
17 49 -4 82 -3 85 3 4 6 -20 10 -63 9 -52 0 -74 4 -88 17 -20 19 -42 22 -42 7
0 -5 -6 -8 -12 -6 -7 3 -27 7 -45 10 -30 5 -31 4 -19 -19z"/>
<path d="M925 3060 c3 -5 13 -10 21 -10 8 0 14 5 14 10 0 6 -9 10 -21 10 -11
0 -17 -4 -14 -10z"/>
<path d="M970 3060 c0 -5 5 -10 11 -10 5 0 7 5 4 10 -3 6 -8 10 -11 10 -2 0
-4 -4 -4 -10z"/>
<path d="M969 3012 c-7 -11 -19 -18 -26 -15 -19 8 -16 -21 5 -40 19 -18 72
-24 72 -9 0 5 9 13 20 18 18 9 18 10 2 30 -25 32 -59 39 -73 16z"/>
<path d="M435 2930 c-17 -7 -15 -9 13 -9 17 -1 32 4 32 9 0 12 -17 12 -45 0z"/>
<path d="M545 2899 c-16 -4 -51 -10 -78 -14 -27 -3 -45 -10 -41 -16 3 -6 -8
-15 -25 -22 -40 -15 -40 -37 0 -37 16 0 28 -4 25 -8 -2 -4 -1 -14 4 -22 8 -12
13 -13 30 -2 11 6 24 12 29 12 21 0 101 62 101 78 0 30 -13 39 -45 31z"/>
<path d="M1889 2846 c-2 -2 -38 -6 -79 -9 -41 -4 -154 -15 -250 -26 -96 -11
-260 -29 -365 -41 -104 -11 -329 -35 -500 -55 -548 -63 -659 -75 -677 -75 -10
0 -18 -5 -18 -11 0 -8 14 -9 43 -5 43 6 1016 104 1497 151 335 32 338 33 350
56 10 17 9 25 -1 15z"/>
<path d="M415 2741 c-6 -5 -19 -11 -30 -13 -11 -2 13 -5 53 -5 74 -1 96 10 41
21 -42 8 -53 8 -64 -3z"/>
<path d="M1743 2683 c9 -2 17 -9 17 -14 0 -6 5 -7 10 -4 19 12 10 25 -17 24
-17 -1 -21 -3 -10 -6z"/>
<path d="M1618 2674 c-4 -3 -42 -7 -85 -9 -102 -5 -229 -14 -273 -20 -19 -3
-56 -7 -81 -10 -25 -2 -84 -9 -130 -14 -80 -10 -220 -23 -246 -24 -7 0 -13 -3
-13 -6 0 -3 -15 -6 -33 -7 -61 -1 -202 -14 -272 -24 -38 -5 -133 -16 -210 -25
-77 -8 -149 -16 -160 -19 -11 -2 -41 -5 -67 -5 l-48 -1 0 -1075 0 -1075 36 0
c31 0 37 4 50 37 25 63 35 76 169 216 143 149 162 160 232 135 l42 -15 53 70
c29 38 74 101 99 139 25 37 49 65 54 61 4 -5 5 0 2 10 -4 9 -2 17 4 17 5 0 34
26 63 58 33 35 69 62 92 71 95 33 275 179 295 238 10 32 62 73 92 73 26 0 254
371 281 458 4 12 25 51 46 85 21 35 43 79 48 98 5 19 13 43 18 53 7 18 4 19
-72 11 -134 -13 -164 -14 -164 -4 0 5 7 9 15 9 8 0 15 5 15 10 0 6 -7 10 -15
10 -12 0 -15 13 -15 60 0 33 4 60 10 60 6 0 10 18 10 40 0 22 -4 40 -9 40 -5
0 -11 38 -13 83 -3 78 -2 84 16 79 12 -3 17 -1 13 5 -10 16 20 36 44 30 29 -8
69 9 69 28 0 12 9 15 46 11 25 -2 55 -1 67 2 20 5 20 6 1 13 -18 7 -17 8 4 8
12 1 22 6 22 11 0 10 -92 14 -102 4z m-265 -521 c-7 -2 -19 -2 -25 0 -7 3 -2
5 12 5 14 0 19 -2 13 -5z m-214 -321 c7 -18 11 -82 9 -182 l-3 -155 -35 -17
c-64 -31 -493 -76 -559 -58 -14 3 -24 11 -21 16 3 5 -24 12 -60 15 -53 5 -67
3 -77 -10 -11 -14 -12 -13 -13 7 0 30 23 38 137 46 96 7 238 34 312 60 24 9
46 14 50 11 13 -8 71 101 91 169 28 99 52 125 116 126 36 0 43 -4 53 -28z"/>
<path d="M1835 1160 c-3 -5 -2 -10 4 -10 5 0 13 5 16 10 3 6 2 10 -4 10 -5 0
-13 -4 -16 -10z"/>
<path d="M6378 1033 c7 -3 16 -2 19 1 4 3 -2 6 -13 5 -11 0 -14 -3 -6 -6z"/>
<path d="M6311 984 c0 -11 3 -14 6 -6 3 7 2 16 -1 19 -3 4 -6 -2 -5 -13z"/>
<path d="M6240 904 c0 -15 26 -19 34 -5 3 5 -3 11 -14 14 -13 3 -20 0 -20 -9z"/>
<path d="M6197 500 c-3 -13 0 -20 9 -20 8 0 14 9 14 20 0 11 -4 20 -9 20 -5 0
-11 -9 -14 -20z"/>
<path d="M6257 284 c-4 -4 -4 -10 -1 -15 6 -10 34 0 34 12 0 10 -24 12 -33 3z"/>
<path d="M1245 270 c-3 -5 -1 -10 4 -10 6 0 11 5 11 10 0 6 -2 10 -4 10 -3 0
-8 -4 -11 -10z"/>
<path d="M1182 245 c-15 -8 -19 -14 -11 -17 7 -2 -7 -14 -32 -27 -36 -19 -38
-22 -14 -16 38 8 77 33 70 45 -3 4 3 6 14 3 10 -3 22 1 26 9 5 7 5 10 0 6 -4
-4 -13 -4 -19 0 -6 5 -21 3 -34 -3z"/>
<path d="M6240 210 c0 -5 7 -10 16 -10 8 0 12 5 9 10 -3 6 -10 10 -16 10 -5 0
-9 -4 -9 -10z"/>
<path d="M1066 178 c5 -8 2 -9 -9 -5 -18 7 -33 -8 -17 -18 12 -7 50 12 50 25
0 6 -7 10 -16 10 -9 0 -12 -5 -8 -12z"/>
<path d="M966 121 c-27 -22 -55 -50 -62 -63 -16 -28 -18 -58 -4 -58 6 0 10 4
10 9 0 5 29 37 65 71 56 55 71 80 47 80 -4 0 -29 -18 -56 -39z"/>
<path d="M6350 120 c0 -5 5 -10 10 -10 6 0 10 5 10 10 0 6 -4 10 -10 10 -5 0
-10 -4 -10 -10z"/>
<path d="M6320 50 c0 -5 18 -10 40 -10 22 0 40 5 40 10 0 6 -18 10 -40 10 -22
0 -40 -4 -40 -10z"/>
<path d="M6280 10 c0 -5 7 -10 16 -10 8 0 12 5 9 10 -3 6 -10 10 -16 10 -5 0
-9 -4 -9 -10z"/>
<path d="M6338 3 c12 -2 32 -2 45 0 12 2 2 4 -23 4 -25 0 -35 -2 -22 -4z"/>
</g>
</svg>
